<svg viewBox="0 0 21 22" xmlns="http://www.w3.org/2000/svg"><path d="M10.4895 0.944107C4.6935 0.944107 0 5.64811 0 11.4441C0 17.2401 4.6935 21.9441 10.4895 21.9441C16.296 21.9441 21 17.2401 21 11.4441C21 5.64811 16.296 0.944107 10.4895 0.944107ZM17.766 7.24411H14.6685C14.3325 5.93161 13.8495 4.67161 13.2195 3.50611C15.1515 4.16761 16.758 5.51161 17.766 7.24411ZM10.5 3.08611C11.3715 4.34611 12.054 5.74261 12.5055 7.24411H8.4945C8.946 5.74261 9.6285 4.34611 10.5 3.08611ZM2.373 13.5441C2.205 12.8721 2.1 12.1686 2.1 11.4441C2.1 10.7196 2.205 10.0161 2.373 9.34411H5.922C5.838 10.0371 5.775 10.7301 5.775 11.4441C5.775 12.1581 5.838 12.8511 5.922 13.5441H2.373ZM3.234 15.6441H6.3315C6.6675 16.9566 7.1505 18.2166 7.7805 19.3821C5.8485 18.7206 4.242 17.3871 3.234 15.6441ZM6.3315 7.24411H3.234C4.242 5.50111 5.8485 4.16761 7.7805 3.50611C7.1505 4.67161 6.6675 5.93161 6.3315 7.24411ZM10.5 19.8021C9.6285 18.5421 8.946 17.1456 8.4945 15.6441H12.5055C12.054 17.1456 11.3715 18.5421 10.5 19.8021ZM12.957 13.5441H8.043C7.9485 12.8511 7.875 12.1581 7.875 11.4441C7.875 10.7301 7.9485 10.0266 8.043 9.34411H12.957C13.0515 10.0266 13.125 10.7301 13.125 11.4441C13.125 12.1581 13.0515 12.8511 12.957 13.5441ZM13.2195 19.3821C13.8495 18.2166 14.3325 16.9566 14.6685 15.6441H17.766C16.758 17.3766 15.1515 18.7206 13.2195 19.3821ZM15.078 13.5441C15.162 12.8511 15.225 12.1581 15.225 11.4441C15.225 10.7301 15.162 10.0371 15.078 9.34411H18.627C18.795 10.0161 18.9 10.7196 18.9 11.4441C18.9 12.1686 18.795 12.8721 18.627 13.5441H15.078Z"></path></svg>