<svg xmlns="http://www.w3.org/2000/svg" viewBox="0 0 32 32"><path d="M16.078 12.19c1.212 0 2.273 1.067 2.273 2.286 0 1.22-1.06 2.286-2.273 2.286H9.261c-.455 0-.758.305-.758.762s.303.762.757.762h.758c2.878 0 5.303 2.438 5.303 5.333 0 .457.302.762.757.762s.758-.305.758-.762c0-2.133-1.06-4.114-2.576-5.333h1.818c2.121 0 3.788-1.676 3.788-3.81 0-.304-.152-.61-.152-.914.303.152.606.152.91.152 1.211 0 2.272-.61 3.03-1.524.757.915 1.818 1.524 3.03 1.524.909 0 1.666-.304 2.272-.762v9.905c0 2.59-1.363 4.572-3.03 4.572v2.037A2.528 2.528 0 0123.406 32H11.78a2.528 2.528 0 01-2.52-2.534v-.514l.006-1.523c-3.787 0-6.066-4.42-6.066-9.905v-2.286c0-1.676 1.364-3.048 3.03-3.048zM26.683 1.524c1.212 0 2.273 1.066 2.273 2.286v6.094c0 1.22-1.06 2.286-2.273 2.286-1.211 0-2.272-1.066-2.272-2.286V3.81c0-1.219 1.06-2.285 2.272-2.285zM20.623 0c1.212 0 2.273 1.067 2.273 2.286v7.619c0 1.219-1.06 2.285-2.273 2.285-1.212 0-2.272-1.066-2.272-2.285v-7.62C18.35 1.068 19.41 0 20.623 0zm-6.06 0c1.212 0 2.273 1.067 2.273 2.286v8.38H12.29v-8.38C12.29 1.066 13.351 0 14.563 0zm-6.06 1.524c1.212 0 2.272 1.066 2.272 2.286v6.857H6.23V3.81c0-1.22 1.06-2.286 2.273-2.286z" fill="#fff" fill-rule="evenodd"></path></svg>