<svg viewBox="0 0 182 35" fill="none" xmlns="http://www.w3.org/2000/svg">
<g clip-path="url(#clip0)">
<path d="M103.919 33.8683C106.177 32.0734 106.299 29.7217 106.307 27.3566C106.319 23.4256 106.361 19.4909 106.223 15.5648C106.18 14.328 105.677 13.0842 105.241 11.8963C105.053 11.3845 104.5 11.007 103.999 10.4409C104.418 10.4172 104.702 10.3872 104.985 10.3872C109.8 10.3846 114.615 10.3807 119.43 10.3879C121.035 10.3902 122.6 10.6304 124.031 11.4017C125.978 12.4521 127.236 13.9831 127.081 16.3075C126.932 18.5422 125.637 20.0027 123.649 20.9073C123.378 21.031 123.091 21.1215 122.74 21.2539C123.262 21.4738 123.746 21.6413 124.198 21.8722C126.301 22.9519 127.603 24.6197 127.671 27.0295C127.738 29.4409 126.572 31.1877 124.466 32.3275C122.343 33.4763 120.019 33.866 117.661 33.9081C113.285 33.9863 108.906 33.9359 104.529 33.9367C104.405 33.9367 104.28 33.9099 103.919 33.8683ZM112.992 32.5024C114.248 32.7238 116.475 32.4396 117.872 31.8995C119.985 31.082 121.145 29.5157 121.156 27.4672C121.169 25.0942 119.946 23.1592 117.921 22.3115C116.326 21.6428 114.672 21.8154 112.992 21.8323V32.5024ZM112.977 20.5567C114.334 20.5567 115.621 20.6593 116.885 20.5323C118.733 20.3476 119.935 19.2705 120.387 17.4556C120.842 15.6283 120.388 14.0564 118.945 12.8019C117.828 11.8312 116.489 11.7158 115.089 11.7492C113.574 11.7857 113.056 12.1257 113 13.6259C112.912 15.9138 112.977 18.2079 112.977 20.5567Z" fill="#F36001"/>
<path d="M145.805 26.0406C145.835 30.8538 142.081 34.6279 137.194 34.6979C132.451 34.7663 128.52 30.9366 128.486 26.2147C128.451 21.3323 132.308 17.4452 137.186 17.4468C141.942 17.4486 145.774 21.2698 145.805 26.0406ZM140.106 29.1029C139.918 25.8837 139.651 23.2288 138.499 20.7549C137.886 19.4418 137.024 18.7561 136.171 18.8777C135.255 19.0081 134.619 19.9201 134.381 21.3537C134.034 23.4592 134.253 25.5421 134.629 27.6114C134.927 29.25 135.324 30.8707 136.306 32.2652C136.747 32.8927 137.324 33.3742 138.158 33.2546C138.99 33.135 139.458 32.5337 139.633 31.7827C139.879 30.7285 140.013 29.6471 140.106 29.1029Z" fill="#F36001"/>
<path d="M174.634 17.5028C176.518 17.5532 178.355 17.807 179.958 18.8931C181.284 19.7912 181.262 21.2345 179.936 22.0084C179.474 22.2782 179.12 22.3826 178.95 21.6347C178.444 19.4072 176.118 18.2591 174.027 19.15C172.737 19.6994 172.527 20.7561 173.644 21.582C174.627 22.3077 175.75 22.8422 176.794 23.4867C177.84 24.1317 178.909 24.7517 179.888 25.4881C180.931 26.273 181.741 27.2835 181.927 28.6388C182.175 30.4597 181.501 31.9038 180.023 32.9726C178.168 34.3133 176.025 34.704 173.809 34.6909C172.025 34.6803 170.254 34.4031 168.638 33.6009C167.894 33.2306 167.156 32.7466 166.587 32.1501C165.535 31.0471 165.676 29.4119 166.774 28.4086C167.815 27.4568 169.795 27.4715 170.757 28.438C171.309 28.9927 171.343 29.6699 170.858 30.4538C169.929 31.9549 170.216 32.7903 172.003 33.1256C173.069 33.3257 174.249 33.308 175.308 33.0752C176.658 32.7777 177.013 31.2706 175.99 30.3329C175.28 29.6812 174.392 29.2044 173.538 28.7324C172.106 27.9424 170.598 27.285 169.201 26.4399C168.472 25.9996 167.813 25.3543 167.301 24.6694C165.974 22.8944 166.288 20.9189 168.008 19.5286C169.591 18.2478 172.211 17.4467 174.634 17.5028Z" fill="#F36001"/>
<path d="M145.305 33.8672C145.804 33.2121 146.409 32.7014 146.636 32.0579C147.038 30.9163 147.412 29.6993 147.441 28.5049C147.544 24.4134 147.524 20.3177 147.484 16.2249C147.468 14.636 146.895 13.2871 145.279 12.6166C145.108 12.5459 144.974 12.3823 144.935 12.3507C147.03 11.0285 149.048 9.70658 151.116 8.4667C152.813 7.44979 153.631 7.90141 153.643 9.86681C153.677 15.2972 153.646 20.7297 153.675 26.1602C153.682 27.5204 153.748 28.8881 153.921 30.2352C154.087 31.5281 154.572 32.7158 155.717 33.5123C155.788 33.5619 155.808 33.6866 155.896 33.8672H145.305Z" fill="#F36001"/>
<path d="M163.091 18.1413C164.115 18.1413 165.015 18.1575 165.912 18.1349C166.387 18.1228 166.619 18.2706 166.617 18.7806C166.615 19.2842 166.468 19.5375 165.906 19.5049C165.252 19.4658 164.593 19.5041 163.936 19.5008C163.372 19.4982 163.084 19.7271 163.087 20.3325C163.103 23.5288 163.055 26.7261 163.14 29.9195C163.161 30.6548 163.527 31.431 163.905 32.0899C164.19 32.5863 164.181 32.9232 163.885 33.3444C163.137 34.4061 162.098 34.8407 160.833 34.725C159.198 34.5745 157.856 33.9205 157.274 32.2805C157.042 31.6264 156.937 30.8958 156.928 30.1986C156.893 27.1664 156.913 24.1342 156.913 21.102C156.913 19.5301 156.912 19.5 155.335 19.5098C154.7 19.5139 154.451 19.2631 154.581 18.6953C154.632 18.4741 154.891 18.1562 155.083 18.1333C156.848 17.9273 158.154 16.96 159.147 15.6029C160.113 14.284 160.929 12.8572 161.808 11.4759C161.925 11.292 161.994 11.0682 162.139 10.9137C162.324 10.7143 162.564 10.567 162.78 10.397C162.884 10.641 163.074 10.8836 163.077 11.1292C163.103 13.0411 163.091 14.953 163.091 16.8657V18.1413Z" fill="#F36001"/>
<path d="M-0.23313 9.82342C-0.257563 9.89261 -0.281224 9.96179 -0.305656 10.0299C-0.221814 10.1228 -0.154175 10.2408 -0.0525872 10.3033C1.13277 11.0283 1.67389 12.1468 1.68109 13.4667C1.70964 18.4383 1.73407 23.4117 1.64534 28.3815C1.61371 30.1381 1.20916 31.8672 -0.38204 33.0116C-0.440678 33.0541 -0.421903 33.2045 -0.435791 33.2827H5.50644C5.04865 32.7863 4.62559 32.4332 4.3342 31.9932C3.58888 30.8695 3.29697 29.5834 3.27974 28.2573C3.23499 24.8705 3.22445 21.4834 3.23499 18.0957C3.23679 17.6418 3.43765 17.1887 3.54593 16.7347C3.90624 17.0431 4.32931 17.3008 4.61736 17.6662C8.5875 22.7135 12.5373 27.7774 16.5028 32.8285C16.6752 33.0484 16.9347 33.3267 17.1741 33.347C17.9526 33.4128 18.7393 33.3714 19.5919 33.3714V32.3031C19.5919 27.0036 19.5806 21.703 19.6017 16.4035C19.6058 15.4509 19.6765 14.4893 19.8311 13.5503C20.0612 12.1551 20.617 10.8982 21.7731 9.90624H15.9748C15.9903 10.0423 15.9764 10.122 16.0057 10.1449C17.7371 11.4961 18.0444 13.4227 18.0843 15.4215C18.1324 17.8247 18.1038 20.2298 18.103 22.634C18.103 22.8282 18.0606 23.0226 18.0233 23.3449C15.1513 19.6797 12.3732 16.1301 9.5882 12.5853C8.88043 11.6839 8.319 10.4507 7.38517 10.0024C6.42433 9.54026 5.09083 9.83808 3.92013 9.82651C2.53622 9.81262 1.15155 9.82342 -0.23313 9.82342ZM32.5676 31.3196C32.7561 31.6995 32.8759 31.9718 33.0223 32.2282C34.3679 34.5869 38.0389 34.8649 39.4616 32.7261C39.7368 32.3136 39.8106 31.9623 39.4349 31.5588C38.8272 30.9071 38.605 30.1065 38.6116 29.2238C38.6278 26.985 38.5546 24.7419 38.6677 22.5085C38.7302 21.272 39.0663 20.0434 39.3428 18.8256C39.4323 18.4326 39.726 18.0867 39.9482 17.6776H30.7768C31.9418 18.9329 32.2641 20.3541 32.3202 21.8C32.4112 24.1162 32.3739 26.4383 32.3495 28.7575C32.3438 29.2375 32.1957 29.7289 32.0419 30.1911C31.84 30.7973 31.4522 31.2358 30.7426 31.2576C30.0307 31.279 29.4906 30.9549 29.2628 30.3099C29.0578 29.7305 28.9171 29.0968 28.9104 28.4852C28.8747 25.2087 28.8901 21.9327 28.8878 18.6556V17.6848H21.3428C21.7275 18.661 22.1529 19.565 22.432 20.5122C22.6215 21.1557 22.6508 21.8586 22.6729 22.537C22.747 24.828 22.6963 27.1262 22.864 29.4092C22.9983 31.235 23.7817 32.8246 25.6033 33.5558C27.5437 34.3346 29.4207 34.0514 31.0949 32.7871C31.6098 32.3982 32.02 31.8726 32.5676 31.3196ZM59.8921 16.9333C57.8402 16.9729 55.6226 17.4564 53.7088 18.8994C51.9623 20.2183 51.6205 22.123 52.8092 23.9582C53.1158 24.432 53.481 24.9453 53.9488 25.2244C55.7478 26.2966 57.6083 27.2638 59.4258 28.3052C60.1775 28.7365 60.9594 29.1693 61.5866 29.7534C62.5963 30.6929 62.2409 32.1135 60.9244 32.5407C59.6691 32.9484 58.3814 32.8979 57.1423 32.4479C55.7884 31.9559 55.5752 31.2227 56.371 30.0306C57.1641 28.8414 56.8388 27.7576 55.4646 27.36C54.8366 27.1777 54.1018 27.1393 53.464 27.2705C52.4114 27.4876 51.7923 28.2694 51.5799 29.3164C51.3358 30.5229 51.7905 31.5709 52.7889 32.1485C53.9735 32.8344 55.2661 33.4403 56.5898 33.7577C59.5382 34.4639 62.4711 34.3068 65.151 32.7156C68.0798 30.9752 68.4637 27.6607 65.9531 25.365C64.8994 24.4011 63.6004 23.698 62.3865 22.9169C61.3328 22.2382 60.1834 21.695 59.1843 20.9482C58.1867 20.2013 58.3837 19.1829 59.5104 18.6384C61.5607 17.6467 64.016 18.7978 64.562 21.0073C64.7312 21.6909 64.9923 21.7984 65.583 21.4247C66.8635 20.6146 66.8473 19.1762 65.518 18.2966C63.9046 17.2293 62.0683 16.9819 59.8921 16.9333ZM48.9137 17.5775V16.5452C48.9137 14.5258 48.9234 12.5066 48.9008 10.4872C48.8982 10.2684 48.7105 10.0521 48.6086 9.83474C48.4037 9.97542 48.131 10.0732 48.0066 10.266C47.6527 10.8144 47.385 11.418 47.0367 11.9712C46.4128 12.9629 45.8076 13.9733 45.0999 14.9041C44.0495 16.2849 42.7641 17.3473 40.9358 17.5629C40.7373 17.5865 40.4657 17.8859 40.416 18.0999C40.2273 18.9077 40.7455 18.9532 41.3712 18.9419C42.6762 18.9174 42.7202 18.9807 42.7209 20.2589C42.7217 23.3155 42.7014 26.3714 42.7356 29.4273C42.7436 30.1538 42.8372 30.9076 43.0553 31.5969C43.5807 33.2557 44.8946 33.9514 46.5275 34.1473C47.7851 34.2988 48.8355 33.9115 49.6281 32.8864C50.0095 32.3934 50.0471 31.9906 49.6507 31.4287C49.292 30.9199 48.9813 30.2531 48.9682 29.6492C48.8959 26.3485 48.9291 23.0463 48.9088 19.7448C48.9054 19.1777 49.175 18.9498 49.6981 18.9434C50.3806 18.9347 51.0647 18.9092 51.7465 18.9401C52.2444 18.9622 52.4268 18.7734 52.4366 18.2853C52.4479 17.7629 52.2655 17.5497 51.7247 17.5685C50.8289 17.6012 49.9308 17.5775 48.9137 17.5775Z" fill="#F36001"/>
<path d="M-0.23313 9.82342C1.15155 9.82342 2.53622 9.81262 3.92013 9.82651C5.09083 9.83808 6.42433 9.54027 7.38517 10.0024C8.319 10.4507 8.88043 11.6839 9.5882 12.5853C12.3732 16.1301 15.1513 19.6797 18.0233 23.3449C18.0606 23.0226 18.103 22.8282 18.103 22.634C18.1038 20.2298 18.1324 17.8247 18.0843 15.4215C18.0444 13.4227 17.7371 11.4961 16.0057 10.1449C15.9764 10.122 15.9903 10.0423 15.9748 9.90624H21.7731C20.617 10.8982 20.0612 12.1551 19.8311 13.5503C19.6765 14.4893 19.6058 15.4509 19.6017 16.4035C19.5806 21.703 19.5919 27.0036 19.5919 32.3031V33.3714C18.7393 33.3714 17.9526 33.4128 17.1741 33.347C16.9347 33.3267 16.6752 33.0484 16.5028 32.8285C12.5373 27.7774 8.5875 22.7135 4.61735 17.6662C4.32931 17.3008 3.90624 17.0431 3.54593 16.7347C3.43765 17.1887 3.23679 17.6418 3.23499 18.0957C3.22445 21.4834 3.23499 24.8705 3.27974 28.2573C3.29697 29.5834 3.58888 30.8695 4.3342 31.9932C4.62559 32.4332 5.04865 32.7863 5.50644 33.2827H-0.435791C-0.421903 33.2045 -0.440678 33.0541 -0.38204 33.0116C1.20916 31.8672 1.61371 30.1381 1.64534 28.3815C1.73407 23.4117 1.70964 18.4383 1.68109 13.4667C1.67389 12.1468 1.13277 11.0283 -0.0525872 10.3033C-0.154175 10.2408 -0.221814 10.1228 -0.305656 10.0299C-0.281224 9.96179 -0.257563 9.89261 -0.23313 9.82342Z" fill="#F36001"/>
<path d="M32.5785 31.3149C32.031 31.8681 31.6208 32.3945 31.1067 32.7826C29.4316 34.0477 27.5555 34.3301 25.615 33.5513C23.7926 32.8202 23.01 31.2302 22.8758 29.4045C22.7076 27.1217 22.758 24.8235 22.6847 22.5331C22.6628 21.8538 22.6335 21.1517 22.444 20.5083C22.1649 19.5613 21.7385 18.6573 21.3538 17.6803H28.8988V18.6519C28.9011 21.9279 28.8867 25.2049 28.9214 28.4804C28.9288 29.092 29.0695 29.726 29.2737 30.3052C29.5016 30.9504 30.0417 31.2752 30.7546 31.2531C31.4631 31.232 31.8512 30.7935 32.0531 30.1874C32.2074 29.7242 32.3556 29.233 32.3604 28.753C32.3857 26.4343 32.4224 24.1124 32.3322 21.796C32.2751 20.3496 31.9528 18.9284 30.7878 17.6738H39.96C39.737 18.0822 39.4433 18.4289 39.3548 18.8209C39.0773 20.0389 38.7422 21.2675 38.6787 22.504C38.5655 24.7382 38.6396 26.9803 38.6224 29.2193C38.6159 30.1017 38.8381 30.9023 39.4459 31.5543C39.8226 31.9586 39.7475 32.3091 39.4726 32.7224C38.0496 34.8604 34.3796 34.5821 33.0332 32.2245C32.8869 31.9673 32.7681 31.6955 32.5785 31.3149Z" fill="#F36001"/>
<path d="M59.8515 16.9258C62.0285 16.9746 63.8641 17.2221 65.4774 18.2894C66.8065 19.1687 66.8237 20.6081 65.5424 21.4175C64.9525 21.7909 64.6906 21.6842 64.5222 21.0009C63.9754 18.7911 61.5209 17.6392 59.4698 18.6309C58.3431 19.1761 58.1463 20.1941 59.1445 20.9409C60.1426 21.6886 61.2922 22.231 62.3459 22.9097C63.5595 23.6915 64.8591 24.3944 65.9125 25.3578C68.4231 27.6534 68.0392 30.968 65.1104 32.7084C62.4305 34.3003 59.4976 34.4572 56.5492 33.7502C55.2255 33.4331 53.9337 32.8272 52.7491 32.1421C51.7499 31.5637 51.295 30.5156 51.5401 29.3092C51.7515 28.2622 52.3708 27.4811 53.4234 27.2638C54.0612 27.1321 54.7968 27.171 55.4241 27.3525C56.7982 27.7504 57.1243 28.8349 56.3304 30.0241C55.5346 31.2162 55.7479 31.9484 57.1017 32.4406C58.3405 32.8915 59.6285 32.9409 60.8848 32.5332C62.2003 32.1063 62.5558 30.6856 61.5461 29.7461C60.9188 29.1628 60.1377 28.729 59.3855 28.2979C57.5677 27.2563 55.7072 26.2893 53.9085 25.2169C53.4407 24.9389 53.076 24.4255 52.7694 23.9518C51.5799 22.1155 51.9222 20.211 53.669 18.893C55.5817 17.4489 57.8004 16.9664 59.8515 16.9258Z" fill="#F36001"/>
<path d="M48.9037 17.5792C49.9206 17.5792 50.8179 17.6029 51.7137 17.5702C52.2556 17.5507 52.4379 17.7646 52.4266 18.2862C52.4158 18.7751 52.2337 18.9639 51.7366 18.941C51.0548 18.9101 50.3707 18.9353 49.6871 18.9443C49.165 18.9515 48.8954 19.1794 48.8988 19.7465C48.9183 23.048 48.8859 26.3502 48.9574 29.6509C48.9703 30.2548 49.282 30.9216 49.64 31.4303C50.0371 31.9923 49.9995 32.395 49.6179 32.8881C48.8255 33.9132 47.7744 34.3005 46.5168 34.149C44.8839 33.9533 43.5707 33.2574 43.0453 31.5985C42.8264 30.9088 42.7336 30.1555 42.7256 29.4289C42.6914 26.3731 42.7117 23.3165 42.7099 20.2606C42.7099 18.9827 42.6652 18.9184 41.361 18.9436C40.7355 18.9549 40.2173 18.9094 40.4053 18.1015C40.4554 17.8868 40.7273 17.5882 40.9258 17.5645C42.7539 17.349 44.0393 16.2866 45.0889 14.9058C45.7966 13.975 46.4028 12.9646 47.0267 11.9729C47.3742 11.4196 47.6427 10.816 47.9966 10.2667C48.1211 10.0748 48.3937 9.97711 48.5987 9.83643C48.7002 10.0537 48.8875 10.27 48.8898 10.4889C48.9127 12.5073 48.9037 14.5267 48.9037 16.5458V17.5792Z" fill="#F36001"/>
<path d="M93.2869 26.0147C94.1153 30.5512 90.5029 33.9926 86.2488 34.5432C83.0343 34.9598 79.946 34.4545 77.1003 32.8144C75.8992 32.1228 74.8887 31.2214 74.1982 29.9962C73.0478 27.9549 73.278 25.9008 74.8684 24.1818C75.9872 22.9727 77.3816 22.2112 78.9682 21.7542C77.978 21.1617 76.9747 20.6653 76.0857 20.012C72.7443 17.5593 72.8061 14.3131 76.3467 12.188C80.1404 9.9109 84.2572 9.44308 88.4729 10.8301C90.3043 11.4321 91.7289 12.6363 92.0552 14.7223C92.3708 16.7384 91.0911 18.5849 89.1197 19.009C87.0931 19.4442 85.0488 18.3046 84.5208 16.4202C84.1425 15.0697 84.6167 13.9551 85.5554 12.9976C85.7987 12.7494 86.0721 12.5306 86.3365 12.2945C85.1707 11.2639 82.1832 11.8904 80.6756 13.4384C79.3318 14.8182 79.1917 16.4699 79.6279 18.2442C80.0682 20.0383 81.4642 20.986 83.0139 21.8825C82.7676 22.0875 82.6307 22.2087 82.4859 22.3195C80.1088 24.1386 79.3506 26.7492 80.465 29.2802C81.5007 31.6324 84.1782 32.9592 86.937 32.5094C88.1352 32.3142 89.1889 31.8494 89.9926 30.922C90.2555 30.6186 90.4736 30.2582 90.6364 29.8897C90.9038 29.2843 90.9398 28.6611 90.4574 28.1267C89.9708 27.5882 89.3322 27.5825 88.7162 27.7808C87.4342 28.1936 86.6351 29.0793 86.4985 30.4388C86.435 31.0676 86.156 31.1751 85.6385 31.0434C85.3749 30.9758 85.1033 30.922 84.8541 30.8181C83.7868 30.3706 82.8357 29.7881 82.6868 28.4945C82.5446 27.2659 83.0824 26.3069 84.0278 25.5901C86.016 24.0833 88.2687 23.8449 90.642 24.3176C93.3584 24.8587 95.5144 22.4887 94.7888 19.769C94.6147 19.1181 94.3853 18.4306 94.4388 17.7805C94.5836 16.0314 96.2232 14.737 97.8388 14.9664C99.7237 15.2356 101.041 17.128 100.699 19.0674C100.448 20.4938 99.7221 21.6557 98.724 22.67C97.4394 23.9742 95.9156 24.9122 94.2369 25.6151C93.9149 25.7496 93.5935 25.8854 93.2869 26.0147Z" fill="#F36001"/>
<path d="M16.8727 1.81418C16.7888 1.35768 16.707 0.98888 16.6638 0.870062C16.6618 0.858746 16.6469 0.833542 16.6469 0.833542C16.6327 0.817339 16.6129 0.806023 16.5903 0.806023C16.5517 0.806023 16.5198 0.837142 16.5149 0.876748V0.87752L16.5142 0.898352C16.5028 1.0236 16.3879 2.2838 16.3843 2.34501C16.3776 2.43245 16.3128 2.89281 16.2194 2.98231C16.1451 3.05381 16.0209 3.15642 15.8637 3.28733C15.8072 3.33439 15.746 3.38403 15.6829 3.43701C15.6189 3.4905 15.5464 3.51777 15.4684 3.51777C15.3808 3.51777 15.3018 3.48305 15.2537 3.45579C15.0768 3.32385 14.8283 3.14408 14.5477 2.9427H14.5498C14.5421 2.93807 14.5346 2.93242 14.5261 2.92779C14.3492 2.80048 14.1591 2.6652 13.9652 2.52864C13.0964 1.86871 12.2295 1.1401 11.263 0.84743C10.8957 0.735555 10.5354 0.735555 10.1982 0.805251C10.0967 0.824026 10.0213 0.845629 9.98195 0.857974C9.7852 0.910439 9.62035 0.982194 9.47838 1.06218C9.04992 1.2795 8.79685 1.64367 8.47125 1.81881H8.42033C8.09474 1.64367 7.84064 1.2795 7.4132 1.06218C7.27123 0.982194 7.10638 0.910439 6.90963 0.857974C6.87003 0.845629 6.79467 0.824026 6.69308 0.805251C6.35617 0.735555 5.99586 0.735555 5.62757 0.84743C4.66108 1.1401 3.79514 1.86871 2.92637 2.52864C2.73246 2.6652 2.5424 2.80048 2.36545 2.92779C2.35697 2.93242 2.34925 2.93807 2.34102 2.9427H2.34359C2.06326 3.14408 1.81482 3.32385 1.63788 3.45579C1.58876 3.48305 1.51083 3.51777 1.4221 3.51777C1.34418 3.51777 1.27242 3.4905 1.20864 3.43701C1.1446 3.38403 1.08417 3.33439 1.02681 3.28733C0.869674 3.15642 0.745455 3.05381 0.6719 2.98231C0.578799 2.89281 0.513989 2.43245 0.507303 2.34501C0.502673 2.2838 0.388741 1.0236 0.377424 0.898352L0.375366 0.87752V0.876748C0.371766 0.837142 0.339876 0.806023 0.301042 0.806023C0.278667 0.806023 0.257834 0.817339 0.244718 0.833542C0.243689 0.833542 0.228773 0.858746 0.226715 0.870062C0.184537 0.98888 0.102496 1.35768 0.0189112 1.81418C-0.432961 4.27466 -0.288939 3.42184 -0.432962 4.27466C-0.434762 4.2888 -0.435791 4.30089 -0.435791 4.31221C-0.435791 4.31221 -0.434761 4.31324 -0.434761 4.31401C-0.440419 4.37059 -0.398241 4.41585 -0.362493 4.43077C0.397228 4.75842 1.15875 5.08119 1.92104 5.40035C1.98508 5.42761 2.04629 5.45307 2.10261 5.4775C2.17694 5.5076 2.26927 5.50194 2.34925 5.48702C2.59126 5.44253 2.82941 5.37772 3.07117 5.33631C3.68686 5.22907 4.29022 5.02203 4.92263 5.03901C5.40562 5.05109 5.88759 5.0246 6.37315 5.00763C6.37315 5.00763 6.50406 5.0012 6.56321 4.97574C7.16193 4.72447 7.75783 4.46755 8.35629 4.21525C8.3743 4.20779 8.3941 4.20316 8.4175 4.20213H8.42033C8.44399 4.20316 8.46354 4.20779 8.48231 4.21525C9.08104 4.46755 9.67693 4.72447 10.2757 4.97574C10.334 5.0012 10.4647 5.00763 10.4647 5.00763C10.8911 5.0228 11.3136 5.04466 11.7372 5.04158C11.8146 5.04081 11.8915 5.04081 11.969 5.03901C11.9934 5.03798 12.0168 5.03798 12.0412 5.03798C12.6286 5.04827 13.1417 5.2355 13.7168 5.33631C13.9585 5.37772 14.1967 5.44253 14.4387 5.48702C14.4837 5.49525 14.5336 5.50091 14.5817 5.49808C14.6354 5.50091 14.69 5.49628 14.738 5.4775C15.5605 5.13391 16.4339 4.78465 17.2538 4.43077C17.2888 4.41585 17.332 4.37059 17.3253 4.31401C17.3263 4.31324 17.3274 4.31221 17.3274 4.31221C17.3274 4.30089 17.3253 4.2888 17.3235 4.27466C17.1805 3.42184 17.3235 4.27466 16.8727 1.81418Z" fill="black"/>
<path d="M64.8193 3.3358C65.0093 3.24939 65.1534 3.12311 65.2514 2.95645C65.3491 2.79083 65.398 2.62983 65.398 2.47192V1.0533C65.398 0.846263 65.3558 0.668292 65.2719 0.518611C65.1873 0.369959 65.0762 0.245739 64.9379 0.148781C64.7985 0.0510515 64.6413 -0.0214743 64.4644 -0.0677673C64.2885 -0.113803 64.1095 -0.137207 63.9307 -0.137207H61.8354V6.38445H63.3359V3.7923H63.7029L64.2 6.38445H65.6184C65.6014 6.33096 64.9499 3.86303 64.8193 3.3358ZM63.9796 2.37393C63.9796 2.54805 63.896 2.63446 63.7265 2.63446H63.3359V1.10216H63.7265C63.896 1.10216 63.9796 1.18883 63.9796 1.36294V2.37393Z" fill="black"/>
<path d="M68.0671 0.25355C67.859 0.0465163 67.6029 -0.0571289 67.2961 -0.0571289C66.9892 -0.0571289 66.7323 0.0465163 66.5253 0.25355C66.3182 0.460583 66.2146 0.71751 66.2146 1.02459C66.2146 1.33115 66.3182 1.58833 66.5253 1.79537C66.7323 2.0024 66.9892 2.10605 67.2961 2.10605C67.6029 2.10605 67.859 2.0024 68.0671 1.79537C68.2741 1.58833 68.3778 1.33115 68.3778 1.02459C68.3778 0.71751 68.2741 0.460583 68.0671 0.25355ZM67.9447 1.68144C67.7724 1.85658 67.5568 1.94402 67.2961 1.94402C67.0355 1.94402 66.818 1.85658 66.6449 1.68144C66.4715 1.50629 66.3849 1.28717 66.3849 1.02459C66.3849 0.763803 66.4715 0.545453 66.6449 0.370311C66.818 0.194397 67.0355 0.106697 67.2961 0.106697C67.5568 0.106697 67.7724 0.194397 67.9447 0.368511C68.116 0.542624 68.2016 0.760974 68.2016 1.02459C68.2016 1.28717 68.116 1.50629 67.9447 1.68144Z" fill="black"/>
<path d="M67.7356 1.01061C67.7921 0.935515 67.8204 0.852445 67.8204 0.761145C67.8204 0.669845 67.7911 0.58626 67.7327 0.509876C67.6733 0.434522 67.5877 0.396973 67.4737 0.396973H66.8555V1.66H67.0494V1.14615H67.313L67.5962 1.66H67.8117L67.5069 1.14332C67.6029 1.12917 67.679 1.08494 67.7356 1.01061ZM67.5908 0.917513C67.5625 0.958919 67.5257 0.979494 67.4804 0.979494H67.0494V0.575715H67.4804C67.5275 0.575715 67.565 0.595519 67.5926 0.635896C67.6188 0.675503 67.6322 0.718967 67.6322 0.766803C67.6322 0.827241 67.6188 0.876878 67.5908 0.917513Z" fill="black"/>
<path d="M38.8711 6.38472H41.8812V5.14509H40.4006V3.66166H41.3825V2.42203H40.4006V1.02064H41.8812V-0.137207H38.8711V6.38472Z" fill="black"/>
<path d="M57.0288 6.38472H60.0389V5.14509H58.5583V3.66166H59.5392V2.42306H58.5583V1.02064H60.0389V-0.137207H57.0288V6.38472Z" fill="black"/>
<path d="M54.4533 0.14801C54.315 0.0500227 54.1568 -0.0214742 53.9809 -0.0685389C53.804 -0.113803 53.626 -0.137207 53.4462 -0.137207H51.3679V6.38472H53.4462C53.626 6.38472 53.804 6.36209 53.9809 6.3158C54.1568 6.26976 54.315 6.19723 54.4533 6.0995C54.5917 6.00152 54.7036 5.87833 54.7874 5.72864C54.8713 5.57896 54.9137 5.40099 54.9137 5.19499V3.82445C54.9137 3.66732 54.8646 3.52329 54.7669 3.39239C54.6699 3.26251 54.523 3.15346 54.3271 3.06679C54.523 2.98012 54.6699 2.87005 54.7669 2.73631C54.8646 2.6036 54.9137 2.46061 54.9137 2.30913V1.05253C54.9137 0.846264 54.8713 0.668293 54.7874 0.518869C54.7036 0.369188 54.5917 0.24574 54.4533 0.14801ZM53.5036 4.8928C53.5036 5.06691 53.4169 5.15332 53.2428 5.15332H52.8683V3.71052H53.2428C53.3248 3.71052 53.3878 3.73033 53.4349 3.76787C53.4809 3.80568 53.5036 3.87152 53.5036 3.96359V4.8928ZM53.5036 2.25152C53.5036 2.41997 53.4169 2.50382 53.2428 2.50382H52.8683V1.10139H53.2428C53.4169 1.10139 53.5036 1.18883 53.5036 1.3632V2.25152Z" fill="black"/>
<path d="M46.5471 2.83918L45.9034 -0.137207H43.7844V6.38574H45.1287V2.22734L45.9353 6.38574H46.8812L47.8263 2.23583V6.38574H49.3267V-0.137207H47.1749L46.5471 2.83918Z" fill="black"/>
<path d="M23.7961 2.83918L23.1524 -0.137207H21.0334V6.38574H22.3775V2.22734L23.1853 6.38574H24.1302L25.0761 2.23583V6.38574H26.5755V-0.137207H24.4239L23.7961 2.83918Z" fill="black"/>
<path d="M31.406 0.219751C31.2376 0.0813865 31.0408 -0.0335746 30.814 -0.123075C30.5872 -0.212317 30.3398 -0.257324 30.0705 -0.257324C29.8022 -0.257324 29.5528 -0.212317 29.3231 -0.123075C29.0934 -0.0335746 28.8946 0.0813865 28.7272 0.219751C28.5598 0.358116 28.4278 0.513455 28.3329 0.684739C28.2368 0.856024 28.1897 1.02268 28.1897 1.18548V5.06612C28.1897 5.22917 28.2368 5.3966 28.3329 5.56788C28.4278 5.73917 28.5598 5.89348 28.7272 6.03287C28.8946 6.17124 29.0934 6.28491 29.3231 6.37544C29.5528 6.46494 29.8022 6.50918 30.0705 6.50918C30.3398 6.50918 30.5872 6.46494 30.814 6.37544C31.0408 6.28491 31.2376 6.17124 31.406 6.03287C31.5735 5.89348 31.7054 5.73917 31.8003 5.56788C31.8955 5.3966 31.9436 5.22917 31.9436 5.06612V1.18548C31.9436 1.02268 31.8955 0.856024 31.8003 0.684739C31.7054 0.513455 31.5735 0.358116 31.406 0.219751ZM30.3809 4.9599C30.3809 5.04632 30.3508 5.11524 30.2888 5.16411C30.2276 5.21297 30.1551 5.2374 30.0705 5.2374C29.981 5.2374 29.9056 5.21297 29.8444 5.16411C29.7824 5.11524 29.7513 5.04632 29.7513 4.9599V1.29272C29.7513 1.20528 29.7824 1.13738 29.8444 1.08852C29.9056 1.03965 29.981 1.01496 30.0705 1.01496C30.1551 1.01496 30.2276 1.03965 30.2888 1.08852C30.3508 1.13738 30.3809 1.20528 30.3809 1.29272V4.9599Z" fill="black"/>
<path d="M35.3428 3.50735L34.9446 -0.137207H33.3164L34.5879 6.38472H36.0299L37.3015 -0.137207H35.8011L35.3428 3.50735Z" fill="black"/>
</g>
<defs>
<clipPath id="clip0">
<rect width="182" height="35" fill="white"/>
</clipPath>
</defs>
</svg>