<svg fill="none" xmlns="http://www.w3.org/2000/svg"><path d="M.01 3.28c0-.252-.026-.508.007-.756.038-.287.103-.575.202-.846.083-.224.214-.439.359-.631C.703.88.863.729 1.035.61c.343-.24.739-.377 1.14-.494.073-.02.139-.068.211-.08.131-.02.265-.022.397-.032.327-.027.622.1.912.214.67.265 1.228.672 1.467 1.383.096.289.149.6.166.905.046.8-.21 1.485-.844 2.014-.121.101-.211.24-.316.361-.01.012-.022.03-.032.03-.26-.013-.415.231-.666.26-.223.025-.438.15-.659.158-.43.016-.864.006-1.25-.243-.148-.096-.32-.155-.466-.254-.217-.147-.45-.289-.621-.48-.267-.298-.457-.648-.426-1.076L.01 3.28z" fill="#F36001"></path><path d="M11.683 1.393c.079 0 .142.019.108.113-.009.025-.056.037-.099.063l.099.245.038-.053c.095.026.204.652.16.973l-.057-.126a2.64 2.64 0 01-.366 1.385c-.263.46-.632.798-1.105 1.022-.47.222-.973.308-1.496.26l.435.054a2.414 2.414 0 01-1.28-.273c-.957-.501-1.431-1.303-1.453-2.354-.02-.974.422-1.718 1.235-2.266.25-.169.482-.357.797-.388.09-.009.182.005.273 0 .148-.009.296-.029.444-.036.142-.007.287-.023.424 0 .167.029.329.09.49.145.47.156.817.474 1.137.828.048.053.101.103.14.162.014.024-.008.07-.014.105l-.172-.183-.02.018.271.4.033-.023-.022-.07z" fill="#2F4341"></path></svg>